#!OML:ASF X:\für Bonn\!DataBase\2005_08_10_Bjorn_Final\c3d\bjorn.ASF
:FULLY-SPECIFIED
:DEGREES
94
root -29.4423 18.3152 8.77159 -170.119 -230.627 -186.634
lowerback -2.52035 -2.89348 1.74065
upperback 6.0695 -4.06912 2.1688
thorax 7.80437 -1.94347 0.931097
lowerneck -4.59205 2.73038 0.546992
upperneck 1.85813 3.67688 -2.10522
head 1.39925 1.80141 -0.649621
rclavicle -8.89561e-014 -2.38542e-015
rhumerus -51.309 3.32162 -92.6115
rradius 77.3741
rwrist -13.8696
rhand -25.5007 24.6063
rfingers 7.12502
rthumb 1.02797 -5.37095
lclavicle -8.89561e-014 -2.38542e-015
lhumerus -44.1511 -44.697 99.5573
lradius 66.9659
lwrist 2.72565
lhand -32.6519 -18.0164
lfingers 7.12502
lthumb -5.87817 11.882
rfemur -49.9599 -15.2609 25.4877
rtibia 57.7608
rfoot -13.6484 13.907
rtoes -12.506
lfemur 11.9004 2.32275 -14.5165
ltibia 21.603
lfoot -2.79387 -1.77479
ltoes -34.4126
95
root -29.2907 18.2955 8.91905 -170.143 -230.718 -186.834
lowerback -2.6409 -2.83119 2.09813
upperback 6.05002 -4.02303 2.34425
thorax 7.84305 -1.90396 0.915306
lowerneck -4.52217 2.76955 0.183384
upperneck 1.51571 3.74762 -2.19239
head 1.27284 1.83618 -0.616684
rclavicle -6.36111e-015 -8.74653e-015
rhumerus -50.1041 3.19111 -92.3177
rradius 77.6433
rwrist -13.3048
rhand -25.6028 24.8524
rfingers 7.12502
rthumb 0.929397 -5.12534
lclavicle -6.36111e-015 -8.74653e-015
lhumerus -44.5153 -44.5078 100.622
lradius 65.2549
lwrist 2.84774
lhand -32.4716 -18.1438
lfingers 7.12502
lthumb -5.7041 11.7594
rfemur -49.161 -15.0799 25.4621
rtibia 57.6031
rfoot -14.3448 14.1508
rtoes -13.6457
lfemur 11.2702 1.6875 -14.4038
ltibia 23.4736
lfoot -2.02062 -1.38679
ltoes -33.2838
96
root -29.14 18.2666 9.0641 -170.294 -230.807 -187.163
lowerback -2.6823 -2.75864 2.54846
upperback 6.02891 -3.96679 2.53759
thorax 7.82959 -1.85475 0.87205
lowerneck -4.60985 2.81194 -0.215829
upperneck 1.28333 3.82554 -2.23424
head 1.20721 1.8742 -0.561261
rclavicle 5.12864e-014 -6.97734e-014
rhumerus -48.9052 3.08456 -92.0568
rradius 78.0328
rwrist -12.5613
rhand -25.8756 25.0023
rfingers 7.12502
rthumb 0.665941 -4.97638
lclavicle 5.12864e-014 -6.97734e-014
lhumerus -44.8433 -44.2445 101.64
lradius 63.5674
lwrist 2.9412
lhand -32.528 -17.9054
lfingers 7.12502
lthumb -5.75851 11.9964
rfemur -48.3276 -14.8178 25.4591
rtibia 57.4892
rfoot -15.204 14.3619
rtoes -14.8747
lfemur 10.5019 1.18414 -14.1665
ltibia 25.6637
lfoot -1.52392 -1.13641
ltoes -31.8196
97
root -28.9893 18.232 9.20566 -170.499 -230.93 -187.578
lowerback -2.69544 -2.69247 3.0879
upperback 6.01106 -3.92249 2.72214
thorax 7.79777 -1.80572 0.770619
lowerneck -4.91213 2.86562 -0.648278
upperneck 1.20475 3.92487 -2.19208
head 1.22478 1.92169 -0.470006
rclavicle 1.36664e-014 -2.06736e-014
rhumerus -47.747 3.13489 -91.881
rradius 78.5872
rwrist -11.7862
rhand -26.3416 25.1253
rfingers 7.12502
rthumb 0.215775 -4.85436
lclavicle 1.36664e-014 -2.06736e-014
lhumerus -45.0855 -43.841 102.505
lradius 61.878
lwrist 3.07347
lhand -32.7673 -17.7418
lfingers 7.12502
lthumb -5.98951 12.1536
rfemur -47.5178 -14.4786 25.4627
rtibia 57.4207
rfoot -16.0854 14.536
rtoes -15.122
lfemur 9.56525 0.700097 -13.8543
ltibia 28.1319
lfoot -1.1846 -0.86319
ltoes -29.6916
98
root -28.8398 18.1873 9.34586 -170.769 -231.037 -188.054
lowerback -2.72328 -2.61408 3.62247
upperback 6.05867 -3.8662 2.94206
thorax 7.85005 -1.75 0.708769
lowerneck -5.36798 2.91614 -1.13248
upperneck 1.11877 4.02908 -2.1323
head 1.26484 1.97131 -0.362214
rclavicle -9.15155e-014 3.50358e-014
rhumerus -46.5521 3.35157 -91.7727
rradius 79.3644
rwrist -11.1764
rhand -27.0153 25.1329
rfingers 7.12502
rthumb -0.434845 -4.8464
lclavicle -9.15155e-014 3.50358e-014
lhumerus -44.9989 -43.466 103.235
lradius 60.233
lwrist 3.41554
lhand -32.9118 -17.5595
lfingers 7.12502
lthumb -6.12908 12.3318
rfemur -46.7195 -14.1102 25.5098
rtibia 57.3766
rfoot -16.9342 14.7883
rtoes -14.4943
lfemur 8.60418 0.332723 -13.4774
ltibia 30.6928
lfoot -0.910295 -0.506015
ltoes -27.6118
99
root -28.6892 18.141 9.48618 -171.178 -231.148 -188.68
lowerback -2.74416 -2.49101 4.29444
upperback 6.10049 -3.75602 3.1211
thorax 7.88315 -1.65776 0.533893
lowerneck -5.75621 2.95573 -1.36819
upperneck 1.08108 4.10668 -2.12678
head 1.31528 2.00773 -0.31338
rclavicle 2.87617e-014 -3.64024e-014
rhumerus -45.3189 3.36691 -91.7747
rradius 80.0996
rwrist -10.7328
rhand -27.5969 24.9412
rfingers 7.12502
rthumb -0.996613 -5.03623
lclavicle 2.87617e-014 -3.64024e-014
lhumerus -44.9244 -43.1376 103.91
lradius 58.6118
lwrist 3.79385
lhand -33.0536 -17.431
lfingers 7.12502
lthumb -6.26598 12.4563
rfemur -45.915 -13.6714 25.6424
rtibia 57.392
rfoot -17.8072 15.0898
rtoes -13.2065
lfemur 7.57811 0.0174369 -12.9973
ltibia 33.4486
lfoot -0.775285 -0.0331244
ltoes -25.5053
100
root -28.5301 18.1166 9.63277 -171.545 -231.237 -189.216
lowerback -2.72431 -2.32974 4.84613
upperback 6.13128 -3.58416 3.31071
thorax 7.89222 -1.54342 0.444583
lowerneck -5.99953 2.98018 -1.50036
upperneck 0.92902 4.15541 -2.21955
head 1.30854 2.03118 -0.316085
rclavicle 1.00983e-013 -5.83433e-014
rhumerus -44.1698 3.40904 -91.686
rradius 80.9257
rwrist -10.1919
rhand -27.9502 24.6222
rfingers 7.12502
rthumb -1.33779 -5.3534
lclavicle 1.00983e-013 -5.83433e-014
lhumerus -44.8483 -42.826 104.628
lradius 57.0231
lwrist 4.14865
lhand -33.2614 -17.269
lfingers 7.12502
lthumb -6.46655 12.6122
rfemur -44.9984 -13.2332 25.728
rtibia 57.3796
rfoot -18.8413 15.2952
rtoes -12.3737
lfemur 6.5357 -0.200715 -12.5834
ltibia 36.3017
lfoot -0.772285 0.523991
ltoes -23.7796
101
root -28.3797 18.061 9.77302 -171.948 -231.318 -189.704
lowerback -2.65004 -2.16936 5.35935
upperback 6.19488 -3.40633 3.48314
thorax 7.90892 -1.42706 0.361197
lowerneck -6.18975 2.99984 -1.50462
upperneck 0.740608 4.19142 -2.47606
head 1.28794 2.0469 -0.392112
rclavicle 2.48481e-015 4.77083e-015
rhumerus -43.0253 3.52406 -91.5994
rradius 81.8123
rwrist -9.76809
rhand -28.1394 24.4894
rfingers 7.12502
rthumb -1.52059 -5.48493
lclavicle 2.48481e-015 4.77083e-015
lhumerus -44.7732 -42.4207 105.213
lradius 55.5254
lwrist 4.49885
lhand -33.4274 -17.2
lfingers 7.12502
lthumb -6.62685 12.6763
rfemur -44.1882 -12.7854 25.7912
rtibia 57.5149
rfoot -20.0967 15.355
rtoes -12.4026
lfemur 5.4777 -0.399436 -12.2174
ltibia 39.3157
lfoot -0.963939 1.23903
ltoes -22.2971
102
root -28.2292 18.0043 9.91227 -172.373 -231.375 -190.124
lowerback -2.48778 -2.01905 5.8015
upperback 6.28403 -3.22934 3.65089
thorax 7.90745 -1.31509 0.315208
lowerneck -6.1828 3.02985 -1.28248
upperneck 0.321616 4.22211 -3.06752
head 1.17406 2.06086 -0.614518
rclavicle 6.65929e-015 -1.51076e-014
rhumerus -41.8123 3.76055 -91.5389
rradius 82.7161
rwrist -9.42328
rhand -28.4012 24.7433
rfingers 7.12502
rthumb -1.77341 -5.22911
lclavicle 6.65929e-015 -1.51076e-014
lhumerus -44.6631 -41.848 105.683
lradius 54.117
lwrist 4.79916
lhand -33.5748 -17.1544
lfingers 7.12502
lthumb -6.76909 12.7174
rfemur -43.3006 -12.3471 25.8047
rtibia 57.6726
rfoot -21.4647 15.3928
rtoes -12.7658
lfemur 4.36319 -0.624778 -11.9227
ltibia 42.3988
lfoot -1.35429 2.10895
ltoes -21.024
